[Header]                  # Header keywords are followed by a single value
FileType htr              # single word string
DataType HTRS             # Hierarchical translations followed by rotations and Scale
FileVersion 1             # integer
NumSegments   22        # integer
NumFrames   6          # integer
DataFrameRate    60      # integer
EulerRotationOrder ZYX    # one word string
CalibrationUnits mm   # one word string
RotationUnits Degrees     # one word string
GlobalAxisofGravity Y        # character, X or Y or Z
BoneLengthAxis Y
ScaleFactor 1.0000
[SegmentNames&Hierarchy]
#CHILD         PARENT
LowerTorso	GLOBAL
MidTorso1	LowerTorso
MidTorso2	MidTorso1
UpperTorso	MidTorso2
Neck	UpperTorso
Head	Neck
LCollar	UpperTorso
LUpArm	LCollar
LLowArm	LUpArm
LHand	LLowArm
RCollar	UpperTorso
RUpArm	RCollar
RLowArm	RUpArm
RHand	RLowArm
RThigh	LowerTorso
RLowLeg	RThigh
RFoot	RLowLeg
RToe	RFoot
LThigh	LowerTorso
LLowLeg	LThigh
LFoot	LLowLeg
LToe	LFoot
[BasePosition]
#SegmentName Tx, Ty, Tz, Rx, Ry, Rz, BoneLength
LowerTorso	245.858011	950.547112	300.901792	3.160114	-0.119681	0.216534	50.177140	
MidTorso1	0.000000	50.177140	0.000000	12.744977	0.544086	-1.233692	50.243103	
MidTorso2	0.000000	50.243103	0.000000	-8.561622	-5.666755	-0.324056	70.108070	
UpperTorso	0.000000	70.108070	0.000000	-7.840640	5.423498	1.565454	211.798493	
Neck	0.000000	211.798493	0.000000	3.763396	2.354772	0.143986	247.477358	
Head	0.000000	247.477358	0.000000	87.188098	-1.617490	-0.909978	97.755902	
LCollar	5.963899	207.774288	0.020038	-0.085181	3.120430	-88.053499	154.341182	
LUpArm	0.000000	154.341182	0.000000	17.609330	2.601210	1.098979	257.694232	
LLowArm	0.000000	257.694232	0.000000	-4.295116	-4.411555	-0.381267	245.288314	
LHand	0.000000	245.288314	0.000000	-1.254656	0.451892	-3.187610	143.943585	
RCollar	-6.407295	207.548200	-0.033576	-3.957489	-2.573361	89.782717	159.716168	
RUpArm	0.000000	159.716168	0.000000	10.569861	0.025507	1.593474	259.181013	
RLowArm	0.000000	259.181013	0.000000	2.433186	-0.094719	0.439860	254.783021	
RHand	0.000000	254.783021	0.000000	-2.521327	-1.940663	10.821380	138.724995	
RThigh	-104.582724	-43.868855	71.110148	1.186921	1.056410	177.271085	484.665755	
RLowLeg	0.000000	484.665755	0.000000	-9.413113	-2.560999	2.584420	338.943480	
RFoot	0.000000	338.943480	0.000000	38.119802	-1.210697	-2.462270	108.422675	
RToe	0.000000	108.422675	0.000000	62.205972	5.729825	0.107186	135.948299	
LThigh	104.514322	-44.027056	71.110540	1.887019	-3.794944	-176.973714	484.665500	
LLowLeg	0.000000	484.665500	0.000000	-9.413064	2.561022	-2.584327	338.944952	
LFoot	0.000000	338.944952	0.000000	38.119895	1.210631	2.462181	108.422417	
LToe	0.000000	108.422417	0.000000	62.206117	-5.729564	-0.107296	135.948400	
#Beginning of Data. Separated by tabs
[LowerTorso]
#Fr     Tx      Ty      Tz      Rx      Ry      Rz      SF
526	609.158081	-111.287666	383.812683	3.782791	53.279121	-2.894594	1.000000	
527	629.982178	-110.594666	396.998230	3.553504	53.476688	-2.644190	1.000000	
528	651.511902	-107.696068	411.322174	4.097955	53.782963	-2.357466	1.000000	
529	673.596863	-104.152061	427.494598	4.208707	53.877327	-2.165505	1.000000	
530	694.863892	-99.981468	445.116089	4.568255	54.275833	-2.198496	1.000000	
531	715.847778	-96.026062	464.545685	4.528524	54.627335	-2.271907	1.000000	
[MidTorso1]
#Fr     Tx      Ty      Tz      Rx      Ry      Rz      SF
526	0.000000	0.000000	0.000000	6.950942	-1.769000	1.290262	1.000000	
527	0.000000	0.000000	0.000000	6.679231	-1.519975	1.695636	1.000000	
528	0.000000	0.000000	0.000000	6.017465	-1.294438	2.105338	1.000000	
529	0.000000	0.000000	0.000000	5.463008	-1.138958	2.505730	1.000000	
530	0.000000	0.000000	0.000000	4.739748	-1.004166	2.896633	1.000000	
531	0.000000	0.000000	0.000000	4.195271	-0.983273	3.189873	1.000000	
[MidTorso2]
#Fr     Tx      Ty      Tz      Rx      Ry      Rz      SF
526	0.000000	0.000000	0.000000	7.078560	-1.758018	0.338454	1.000000	
527	0.000000	0.000000	0.000000	6.841470	-1.581051	0.799636	1.000000	
528	0.000000	0.000000	0.000000	6.216027	-1.440253	1.298420	1.000000	
529	0.000000	0.000000	0.000000	5.697966	-1.363751	1.767607	1.000000	
530	0.000000	0.000000	0.000000	5.010791	-1.310955	2.240555	1.000000	
531	0.000000	0.000000	0.000000	4.494541	-1.350316	2.583335	1.000000	
[UpperTorso]
#Fr     Tx      Ty      Tz      Rx      Ry      Rz      SF
526	0.000000	0.000000	0.000000	6.947275	-2.106640	0.709225	1.000000	
527	0.000000	0.000000	0.000000	6.673352	-1.981443	1.169809	1.000000	
528	0.000000	0.000000	0.000000	6.008591	-1.877580	1.629394	1.000000	
529	0.000000	0.000000	0.000000	5.450562	-1.838850	2.059695	1.000000	
530	0.000000	0.000000	0.000000	4.723042	-1.816158	2.475633	1.000000	
531	0.000000	0.000000	0.000000	4.175017	-1.876000	2.764845	1.000000	
[Neck]
#Fr     Tx      Ty      Tz      Rx      Ry      Rz      SF
526	0.000000	0.000000	0.000000	-39.988155	-49.854328	16.812361	1.000000	
527	0.000000	0.000000	0.000000	-39.991840	-50.281780	16.232967	1.000000	
528	0.000000	0.000000	0.000000	-39.223896	-50.609482	15.150887	1.000000	
529	0.000000	0.000000	0.000000	-37.890903	-50.658237	13.426584	1.000000	
530	0.000000	0.000000	0.000000	-36.508568	-50.783600	11.968159	1.000000	
531	0.000000	0.000000	0.000000	-35.310226	-50.789753	10.937248	1.000000	
[Head]
#Fr     Tx      Ty      Tz      Rx      Ry      Rz      SF
526	0.000000	0.000000	0.000000	3.075788	10.776300	-0.622532	1.000000	
527	0.000000	0.000000	0.000000	3.477897	10.699106	-0.588350	1.000000	
528	0.000000	0.000000	0.000000	4.204930	10.405258	-0.687041	1.000000	
529	0.000000	0.000000	0.000000	4.328770	10.137490	-0.648095	1.000000	
530	0.000000	0.000000	0.000000	4.506549	9.829978	-0.646617	1.000000	
531	0.000000	0.000000	0.000000	4.339136	9.631984	-0.609312	1.000000	
[LCollar]
#Fr     Tx      Ty      Tz      Rx      Ry      Rz      SF
526	0.000000	0.000000	0.000000	8.102900	2.091285	-14.375799	1.000000	
527	0.000000	0.000000	0.000000	7.759529	2.123703	-15.213508	1.000000	
528	0.000000	0.000000	0.000000	8.462944	2.532447	-16.539227	1.000000	
529	0.000000	0.000000	0.000000	7.580302	2.346195	-17.098583	1.000000	
530	0.000000	0.000000	0.000000	7.346895	2.308059	-17.345728	1.000000	
531	0.000000	0.000000	0.000000	6.563931	2.005048	-16.912411	1.000000	
[LUpArm]
#Fr     Tx      Ty      Tz      Rx      Ry      Rz      SF
526	0.000000	0.000000	0.000000	29.944315	25.905100	-27.632463	1.000000	
527	0.000000	0.000000	0.000000	28.607786	21.302547	-32.630932	1.000000	
528	0.000000	0.000000	0.000000	23.980433	15.538456	-37.160351	1.000000	
529	0.000000	0.000000	0.000000	22.292803	11.181550	-40.610130	1.000000	
530	0.000000	0.000000	0.000000	19.401663	8.065279	-42.627300	1.000000	
531	0.000000	0.000000	0.000000	17.149467	5.524654	-44.374184	1.000000	
[LLowArm]
#Fr     Tx      Ty      Tz      Rx      Ry      Rz      SF
526	0.000000	0.000000	0.000000	38.033062	-0.007715	-0.002658	1.000000	
527	0.000000	0.000000	0.000000	28.898779	-0.006052	-0.001559	1.000000	
528	0.000000	0.000000	0.000000	25.662548	-0.005423	-0.001235	1.000000	
529	0.000000	0.000000	0.000000	18.543467	-0.003982	-0.000650	1.000000	
530	0.000000	0.000000	0.000000	14.289451	-0.003091	-0.000387	1.000000	
531	0.000000	0.000000	0.000000	9.651951	-0.002099	-0.000177	1.000000	
[LHand]
#Fr     Tx      Ty      Tz      Rx      Ry      Rz      SF
526	0.000000	0.000000	0.000000	-168.053680	-18.114443	175.851669	1.000000	
527	0.000000	0.000000	0.000000	-168.196930	-18.332155	177.111496	1.000000	
528	0.000000	0.000000	0.000000	-163.323624	-11.427225	177.191483	1.000000	
529	0.000000	0.000000	0.000000	-163.943298	-6.192736	-179.695862	1.000000	
530	0.000000	0.000000	0.000000	-162.337341	7.188364	-177.982330	1.000000	
531	0.000000	0.000000	0.000000	-162.965530	14.494548	-177.088547	1.000000	
[RCollar]
#Fr     Tx      Ty      Tz      Rx      Ry      Rz      SF
526	0.000000	0.000000	0.000000	8.213760	-3.102786	20.554834	1.000000	
527	0.000000	0.000000	0.000000	8.727257	-3.217622	20.084167	1.000000	
528	0.000000	0.000000	0.000000	8.911929	-3.201567	19.603573	1.000000	
529	0.000000	0.000000	0.000000	8.955568	-3.100546	18.943203	1.000000	
530	0.000000	0.000000	0.000000	8.534632	-2.891310	18.578434	1.000000	
531	0.000000	0.000000	0.000000	8.355697	-2.862804	18.780064	1.000000	
[RUpArm]
#Fr     Tx      Ty      Tz      Rx      Ry      Rz      SF
526	0.000000	0.000000	0.000000	12.548872	-30.976051	32.759655	1.000000	
527	0.000000	0.000000	0.000000	12.614668	-25.261299	34.975029	1.000000	
528	0.000000	0.000000	0.000000	12.072508	-22.695549	36.262329	1.000000	
529	0.000000	0.000000	0.000000	12.621159	-21.826668	37.406670	1.000000	
530	0.000000	0.000000	0.000000	13.193645	-22.527590	37.783710	1.000000	
531	0.000000	0.000000	0.000000	13.401723	-23.344273	37.729633	1.000000	
[RLowArm]
#Fr     Tx      Ty      Tz      Rx      Ry      Rz      SF
526	0.000000	0.000000	0.000000	17.877329	0.000007	0.000007	1.000000	
527	0.000000	0.000000	0.000000	14.114278	0.000006	0.000005	1.000000	
528	0.000000	0.000000	0.000000	13.113325	0.000005	0.000005	1.000000	
529	0.000000	0.000000	0.000000	11.666101	0.000005	0.000004	1.000000	
530	0.000000	0.000000	0.000000	11.120003	0.000004	0.000004	1.000000	
531	0.000000	0.000000	0.000000	12.605044	0.000005	0.000005	1.000000	
[RHand]
#Fr     Tx      Ty      Tz      Rx      Ry      Rz      SF
526	0.000000	0.000000	0.000000	-172.177383	16.268538	-171.562286	1.000000	
527	0.000000	0.000000	0.000000	-172.239182	11.259149	-176.412140	1.000000	
528	0.000000	0.000000	0.000000	-172.612579	0.370702	-178.879730	1.000000	
529	0.000000	0.000000	0.000000	-174.390442	-9.666385	179.112442	1.000000	
530	0.000000	0.000000	0.000000	-179.977478	-21.723356	-176.679932	1.000000	
531	0.000000	0.000000	0.000000	175.948761	-26.418392	-172.893616	1.000000	
[RThigh]
#Fr     Tx      Ty      Tz      Rx      Ry      Rz      SF
526	0.000000	0.000000	0.000000	48.949608	2.194183	13.500624	1.000000	
527	0.000000	0.000000	0.000000	47.979614	3.272864	13.859701	1.000000	
528	0.000000	0.000000	0.000000	47.749718	4.758562	14.402306	1.000000	
529	0.000000	0.000000	0.000000	46.898228	5.777138	14.773086	1.000000	
530	0.000000	0.000000	0.000000	46.528084	6.436865	15.067083	1.000000	
531	0.000000	0.000000	0.000000	45.666901	6.456857	15.047010	1.000000	
[RLowLeg]
#Fr     Tx      Ty      Tz      Rx      Ry      Rz      SF
526	0.000000	0.000000	0.000000	-27.775293	0.000000	-0.000010	1.000000	
527	0.000000	0.000000	0.000000	-26.047258	0.000000	-0.000010	1.000000	
528	0.000000	0.000000	0.000000	-25.681536	0.000000	-0.000009	1.000000	
529	0.000000	0.000000	0.000000	-25.956339	0.000000	-0.000010	1.000000	
530	0.000000	0.000000	0.000000	-27.559381	0.000000	-0.000010	1.000000	
531	0.000000	0.000000	0.000000	-29.976274	0.000000	-0.000011	1.000000	
[RFoot]
#Fr     Tx      Ty      Tz      Rx      Ry      Rz      SF
526	0.000000	0.000000	0.000000	-1.601274	-0.051835	-1.853570	1.000000	
527	0.000000	0.000000	0.000000	-3.803456	-0.257341	-3.865020	1.000000	
528	0.000000	0.000000	0.000000	-4.698300	-0.461652	-5.599250	1.000000	
529	0.000000	0.000000	0.000000	-6.305035	-0.865838	-7.787713	1.000000	
530	0.000000	0.000000	0.000000	-5.983751	-1.027599	-9.709144	1.000000	
531	0.000000	0.000000	0.000000	-4.124053	-0.816486	-11.179457	1.000000	
[RToe]
#Fr     Tx      Ty      Tz      Rx      Ry      Rz      SF
526	0.000000	0.000000	0.000000	-1.848391	-0.000004	-0.000001	1.000000	
527	0.000000	0.000000	0.000000	-1.345892	-0.000003	-0.000001	1.000000	
528	0.000000	0.000000	0.000000	-2.340265	-0.000005	-0.000001	1.000000	
529	0.000000	0.000000	0.000000	-1.849151	-0.000004	-0.000001	1.000000	
530	0.000000	0.000000	0.000000	-2.458515	-0.000005	-0.000001	1.000000	
531	0.000000	0.000000	0.000000	-2.868514	-0.000006	-0.000001	1.000000	
[LThigh]
#Fr     Tx      Ty      Tz      Rx      Ry      Rz      SF
526	0.000000	0.000000	0.000000	13.098726	-1.176202	-3.127559	1.000000	
527	0.000000	0.000000	0.000000	10.035026	-0.021729	-3.554888	1.000000	
528	0.000000	0.000000	0.000000	7.668268	1.049926	-4.107727	1.000000	
529	0.000000	0.000000	0.000000	4.682903	1.349962	-4.302135	1.000000	
530	0.000000	0.000000	0.000000	2.562467	1.365704	-4.092109	1.000000	
531	0.000000	0.000000	0.000000	0.434120	0.650353	-3.330844	1.000000	
[LLowLeg]
#Fr     Tx      Ty      Tz      Rx      Ry      Rz      SF
526	0.000000	0.000000	0.000000	-46.525478	0.000071	-0.000052	1.000000	
527	0.000000	0.000000	0.000000	-44.287636	0.000069	-0.000048	1.000000	
528	0.000000	0.000000	0.000000	-41.617573	0.000066	-0.000044	1.000000	
529	0.000000	0.000000	0.000000	-38.710724	0.000062	-0.000040	1.000000	
530	0.000000	0.000000	0.000000	-36.637749	0.000060	-0.000037	1.000000	
531	0.000000	0.000000	0.000000	-35.102669	0.000058	-0.000034	1.000000	
[LFoot]
#Fr     Tx      Ty      Tz      Rx      Ry      Rz      SF
526	0.000000	0.000000	0.000000	35.286415	5.685558	-7.969167	1.000000	
527	0.000000	0.000000	0.000000	34.934444	4.468706	-6.364832	1.000000	
528	0.000000	0.000000	0.000000	33.172577	2.949178	-4.500337	1.000000	
529	0.000000	0.000000	0.000000	31.361437	2.278032	-3.731476	1.000000	
530	0.000000	0.000000	0.000000	29.286442	2.094537	-3.728465	1.000000	
531	0.000000	0.000000	0.000000	25.443893	2.841142	-5.947810	1.000000	
[LToe]
#Fr     Tx      Ty      Tz      Rx      Ry      Rz      SF
526	0.000000	0.000000	0.000000	12.027456	0.000033	0.000007	1.000000	
527	0.000000	0.000000	0.000000	12.330091	0.000034	0.000008	1.000000	
528	0.000000	0.000000	0.000000	13.377549	0.000037	0.000009	1.000000	
529	0.000000	0.000000	0.000000	13.275530	0.000037	0.000009	1.000000	
530	0.000000	0.000000	0.000000	12.361603	0.000034	0.000008	1.000000	
531	0.000000	0.000000	0.000000	13.252583	0.000037	0.000009	1.000000	
[EndOfFile]
